<?xml version="1.0" encoding="utf-8"?>
<!-- Generator: Adobe Illustrator 19.2.1, SVG Export Plug-In . SVG Version: 6.00 Build 0)  -->
<svg version="1.1" id="layer" xmlns="http://www.w3.org/2000/svg" xmlns:xlink="http://www.w3.org/1999/xlink" x="0px" y="0px"
	 viewBox="0 0 652 652" style="enable-background:new 0 0 652 652;" xml:space="preserve">
<style type="text/css">
	.st0{fill:#4B4B4D;}
</style>
<path class="st0" d="M277.7,204H309c8,0,14.2,2.2,18.2,6.2c3.1,3.1,4.7,6.9,4.7,11.6v0.2c0,8.4-4.8,12.9-10,15.6
	c8.2,2.8,13.8,7.5,13.8,16.9v0.2c0,12.5-10.2,19.1-25.8,19.1h-32.3V204z M306.5,233.4c7.9,0,13.1-3.1,13.1-9.5v-0.2
	c0-5.5-4.4-8.9-12.3-8.9h-17.6v18.5H306.5z M310.1,262.8c8.4,0,13.4-3.3,13.4-9.6v-0.2c0-5.9-4.7-9.4-14.3-9.4h-19.4v19.1H310.1z"/>
<path class="st0" d="M346.6,254.6v-33.5h12.1V251c0,8.2,4.1,12.9,11.2,12.9c7,0,11.8-4.9,11.8-13v-29.7h12.1v52.6h-12.1v-8.2
	c-3.4,5-8.3,9.3-16.4,9.3C353.5,274.8,346.6,266.8,346.6,254.6"/>
<path class="st0" d="M404.1,247.6v-0.2c0-15,10.7-27.4,25.7-27.4c16.7,0,25.2,13.2,25.2,28.3c0,1.1-0.1,2.2-0.2,3.4h-38.6
	c1.3,8.6,7.4,13.3,15.1,13.3c5.9,0,10.1-2.2,14.3-6.3l7.1,6.3c-5,6-11.8,9.9-21.5,9.9C415.8,274.9,404.1,263.8,404.1,247.6
	 M443,243.7c-0.8-7.8-5.4-13.8-13.4-13.8c-7.4,0-12.5,5.7-13.6,13.8H443z"/>
<path class="st0" d="M465.1,221.1h12v8.2c3.4-5,8.3-9.3,16.4-9.3c11.9,0,18.7,8,18.7,20.2v33.5h-12.1v-29.9
	c0-8.2-4.1-12.8-11.2-12.8c-7,0-11.9,4.9-11.9,13v29.7h-12V221.1z"/>
<path class="st0" d="M522,247.7v-0.2c0-15,12-27.5,28.1-27.5c16.1,0,28,12.2,28,27.3v0.2c0,14.9-11.9,27.4-28.2,27.4
	C533.8,274.9,522,262.6,522,247.7 M566,247.7v-0.2c0-9.3-6.7-16.9-16.1-16.9c-9.7,0-15.8,7.6-15.8,16.7v0.2c0,9.2,6.7,16.9,16,16.9
	C559.8,264.4,566,256.8,566,247.7"/>
<path class="st0" d="M584.1,266.8l5.4-8.2c5.7,4.3,11.8,6.5,17.2,6.5c5.2,0,8.2-2.2,8.2-5.7v-0.2c0-4.1-5.6-5.5-11.8-7.4
	c-7.8-2.2-16.4-5.4-16.4-15.4v-0.2c0-9.9,8.3-16,18.7-16c6.6,0,13.7,2.3,19.3,6l-4.8,8.6c-5.1-3.1-10.5-5-14.8-5
	c-4.7,0-7.4,2.2-7.4,5.3v0.2c0,3.8,5.7,5.4,11.9,7.4c7.6,2.4,16.3,5.9,16.3,15.3v0.2c0,11.1-8.6,16.5-19.5,16.5
	C598.9,274.7,590.6,272,584.1,266.8"/>
<path class="st0" d="M300.8,291.1h11.4l30.7,70.2h-12.9l-7.1-16.8h-33l-7.2,16.8h-12.5L300.8,291.1z M318.4,333.6l-12-27.9l-12,27.9
	H318.4z"/>
<path class="st0" d="M346.4,289.2h12.9v11.5h-12.9V289.2z M347,308.7H359v52.6H347V308.7z"/>
<path class="st0" d="M372.8,308.7h12v11.8c3.3-7.9,9.4-13.3,18.6-12.9v12.7h-0.7c-10.6,0-17.9,6.9-17.9,20.8v20h-12V308.7z"/>
<path class="st0" d="M407.2,335.2V335c0-15,10.6-27.4,25.7-27.4c16.7,0,25.2,13.2,25.2,28.3c0,1.1-0.1,2.2-0.2,3.4h-38.6
	c1.3,8.6,7.4,13.3,15.1,13.3c5.9,0,10.1-2.2,14.3-6.3l7.1,6.3c-5,6-11.9,9.9-21.5,9.9C419,362.5,407.2,351.4,407.2,335.2
	 M446.1,331.3c-0.8-7.8-5.4-13.8-13.3-13.8c-7.4,0-12.6,5.7-13.7,13.8H446.1z"/>
<path class="st0" d="M464,354.4l5.4-8.2c5.7,4.3,11.8,6.5,17.2,6.5c5.2,0,8.2-2.2,8.2-5.7v-0.2c0-4.1-5.6-5.5-11.8-7.4
	c-7.8-2.2-16.5-5.4-16.5-15.4v-0.2c0-10,8.3-16,18.7-16c6.6,0,13.7,2.3,19.3,6l-4.8,8.6c-5.1-3.1-10.5-5-14.8-5
	c-4.7,0-7.4,2.2-7.4,5.3v0.2c0,3.8,5.7,5.4,11.9,7.4c7.7,2.4,16.3,5.9,16.3,15.3v0.2c0,11.1-8.6,16.5-19.5,16.5
	C478.8,362.3,470.6,359.6,464,354.4"/>
<path class="st0" d="M271.5,413.8v-0.2c0-19.8,14.8-36.1,36-36.1c12.8,0,20.6,4.5,27.3,10.9l-7.9,9c-5.6-5.2-11.6-8.7-19.5-8.7
	c-13.4,0-23,11-23,24.6v0.2c0,13.6,9.7,24.8,23,24.8c8.5,0,14.1-3.5,20-9l7.9,8c-7.3,7.6-15.2,12.4-28.3,12.4
	C286.6,449.7,271.5,433.8,271.5,413.8"/>
<path class="st0" d="M346.4,376.4h12.9v11.5h-12.9V376.4z M347,395.9H359v52.6H347V395.9z"/>
<path class="st0" d="M372.2,429.3v-33.5h12v29.9c0,8.2,4.1,12.9,11.3,12.9c7,0,11.8-4.9,11.8-13v-29.7h12.1v52.6h-12.1v-8.2
	c-3.4,5-8.2,9.3-16.4,9.3C379,449.6,372.2,441.6,372.2,429.3"/>
<path class="st0" d="M429.8,422.3v-0.2c0-17.4,11.9-27.3,24.4-27.3c8.7,0,14.1,4.4,17.9,9.3v-28.3h12.1v72.7h-12.1v-8.8
	c-3.9,5.5-9.4,9.9-17.9,9.9C441.9,449.6,429.8,439.7,429.8,422.3 M472.3,422.3v-0.2c0-10.2-7.2-16.8-15.3-16.8
	c-8.3,0-15.1,6.4-15.1,16.8v0.2c0,10.2,7,16.8,15.1,16.8C465.2,439.1,472.3,432.3,472.3,422.3"/>
<path class="st0" d="M529.4,448.5V442c-3.6,4.3-9.1,7.6-17,7.6c-9.9,0-18.7-5.7-18.7-16.2v-0.2c0-11.6,9.1-17.2,21.3-17.2
	c6.4,0,10.5,0.9,14.5,2.2v-1c0-7.3-4.6-11.3-12.9-11.3c-5.9,0-10.3,1.3-15,3.3l-3.3-9.7c5.8-2.6,11.4-4.4,20-4.4
	c15.5,0,23.1,8.2,23.1,22.2v31.2H529.4z M529.7,426.5c-3.1-1.2-7.4-2.1-12.1-2.1c-7.6,0-12.1,3.1-12.1,8.2v0.2c0,5,4.5,7.8,10.2,7.8
	c8,0,13.9-4.5,13.9-11.1V426.5z"/>
<path class="st0" d="M551,422.3v-0.2c0-17.4,11.9-27.3,24.4-27.3c8.7,0,14.1,4.4,17.9,9.3v-28.3h12v72.7h-12v-8.8
	c-3.9,5.5-9.4,9.9-17.9,9.9C563.1,449.6,551,439.7,551,422.3 M593.6,422.3v-0.2c0-10.2-7.2-16.8-15.2-16.8
	c-8.3,0-15.1,6.4-15.1,16.8v0.2c0,10.2,6.9,16.8,15.1,16.8C586.4,439.1,593.6,432.3,593.6,422.3"/>
<path class="st0" d="M125.4,244c-0.6,0-1.1,0.5-1.1,1.1c0,0.6,0.5,1.2,1.1,1.2c0.6,0,1.1-0.5,1.1-1.2
	C126.5,244.5,126.1,244,125.4,244"/>
<path class="st0" d="M183.5,261.8l-0.2,0c-6-0.2-11.7-2.4-17.2-4.5c-2.2-0.9-4.6-1.7-6.9-2.4c-4.5-1.5-8.6-2.2-12.4-2.4
	c-1-0.1-1.9-0.1-2.9-0.1c-2.5,0-6.1,0.3-8.4,2.4c-0.7-2.8-1.4-6-2.6-9c-1.1-2.9-2.8-6.2-5.8-7.2c-0.5-0.1-1-0.2-1.5-0.2
	c-3,0-5.3,2.7-6.4,4.3l-0.5,0.7c-1.3,1.9-2,2.8-1.8,3.7c0.2,0.9,1.3,1.6,3.8,3c1,0.6,1.3,2.2,1.4,3.3l0,0.1c0.3,1.7,0.3,3.4,0.3,5
	c-3.5-3.6-8.8-5-13.6-5.9c-1.3-0.3-2.6-0.4-4-0.4c-5.5,0-11,2.1-14.5,3.6c-2,0.9-4.1,1.8-6,2.8c-3.8,1.8-7.7,3.7-11.7,4.9
	c-1.3,0.4-2.6,0.7-4.2,1h-0.1c0,0,0,0-0.1,0l-0.1,0c-0.6,0.1-1.7,0.5-1.9,1.4c-0.2,0.9-0.1,1.6,1.2,2.6c3,1.7,6.6,2.5,11,2.5
	c0.9,0,1.9,0,2.9-0.1c1.3-0.1,2.7-0.3,4.1-0.4c2-0.3,4.1-0.5,6.1-0.5c1.4,0,2.6,0.1,3.7,0.4c3.3,0.8,5.3,4,7,6.9
	c0.4,0.7,0.8,1.4,1.3,2l0,0.1c0.8,1.2,2.1,3.2,2.1,4.7c-0.1,1.5-2.1,2.7-3.6,3.6c-0.4,0.3-0.8,0.5-1,0.7c-0.5,0.3-1,0.7-1.6,1
	c-3.3,2.1-7.8,5-7.3,8.9c0.2,1.9,1.8,3.4,3.8,3.7c0.2,0,0.3,0,0.5,0c1.4,0,2.6-0.6,3.8-1.3c0.5-0.3,1-0.5,1.5-0.7
	c1.6-0.6,3.2-1,4.7-1c2.7,0,5.2,0.9,7.6,2.7c0.8,0.6,1.5,1.3,2.1,2c0.8,0.7,1.5,1.5,2.4,2.1c0.7,0.5,2,1,3.1,1c1.1,0,1.8-0.5,2-1.5
	c0.4-1.9,0.4-3.9,0.4-5.9c0-1.6,0-3.2,0.2-4.7c0.1-0.9,0.4-2.8,1.6-3.4c0.4-0.2,0.9-0.3,1.4-0.3c0.6,0,1.3,0.1,1.9,0.2
	c0.9,0.2,1.8,0.3,2.5,0.2c3.5-0.5,6.4-3.3,7.8-7.7c0.7-1.4,1.4-2.1,2.9-2.4c1.8-0.4,2.9-1.9,3.9-3.2c0.3-0.4,0.6-0.7,0.8-1
	c2.2-2.6,4.8-3.8,8.6-3.8c0.7,0,1.4,0,2.3,0.1c0.8,0.1,1.5,0.2,2.3,0.3c2,0.2,4,0.5,5.9,0.5c2.1,0,4-0.3,5.7-0.8
	c4.5-1.5,8.5-4.5,12.2-7.4l0.5-0.4c1-0.8,1.3-1.4,1-2.4C185.3,262.1,184,261.8,183.5,261.8 M105.4,275.3c-0.9-1.5-1.8-3-2.9-4.4
	c-2.7-3.2-6.2-4.6-11.4-4.6c-2.2,0-4.5,0.2-6.7,0.5c-2.2,0.2-4.5,0.5-6.6,0.5c-1.1,0-2.2-0.1-3.1-0.2c3.8-1.2,7.4-3,10.9-4.7
	c3.8-1.8,7.7-3.7,11.7-4.9c2.5-0.8,5.1-1.2,7.8-1.2c4.9,0,9.4,1.3,13,3.7c3,2,3.9,4.2,2.9,7.2c-1.1,3.2-3,6.3-5.6,9.3
	c-0.2,0.2-0.4,0.4-0.6,0.7c-1.2,1.4-3.1,3.7-4.7,3.7c-0.5,0-0.9-0.2-1.3-0.6C107.4,278.6,106.4,276.9,105.4,275.3 M136.1,279.7
	c-0.4,2.7-1.4,4.9-3,6.4c-1.4,1.3-3,1.6-5.1,1.6c-0.3,0-0.7,0-1.1,0c-0.3,0-0.8,0-1.1,0c-1.3,0-2.4,0.4-3.3,1.3
	c-2.5,2.5-2.5,8.1-2.4,11.8v1.2l-0.3-0.2c-3.2-3-6.2-5.8-10.6-6.5c-0.7-0.1-1.4-0.2-2.2-0.2c-1.3,0-2.8,0.2-4.2,0.5
	c-1.3,0.3-2.4,0.8-3.5,1.3c-0.5,0.2-0.9,0.4-1.3,0.6c-0.5,0.2-1.3,0.4-1.7,0.4c-0.1,0-0.2,0-0.3-0.1c0,0,0-0.1,0-0.2
	c0.4-1.5,2.1-2.6,3.4-3.5l0.3-0.2c3.4-2.3,6.5-4.5,9.6-6.9c5.6-4.4,11.8-9.9,14.9-17.3c1.8-4.2,2.5-9,2.2-13.9l0-0.3
	c-0.1-2-0.3-4.1-1.1-6c-0.7-1.5-1.9-2.3-3.1-3c-0.2-0.1-0.4-0.3-0.7-0.4c0.6-1.1,2.3-4,4.2-4c0.7,0,1.5,0.4,2.1,1.3
	c2.2,3.1,3.3,6.8,4.2,10c0.1,0.6,0.3,1.2,0.5,1.8C134,261.7,137,272.2,136.1,279.7 M174.6,267.8c-3.1,1.7-5.8,2.6-8.4,2.6H166
	c-1.7,0-3.4-0.3-5.1-0.5c-1.4-0.2-2.9-0.3-4.4-0.4c-3.6-0.2-6.4,0.4-8.7,1.7c-1.5,0.9-2.6,2.3-3.7,3.6c-0.8,0.9-1.5,1.9-2.5,2.7
	c-0.3,0.2-0.6,0.5-1,0.5h0c-0.4,0-0.5-0.3-0.4-0.9v-0.4c-0.1-1.4-0.3-2.7-0.4-4l-0.1-0.7c-0.3-2.3-0.6-4.7-1.2-7.1
	c-0.1-0.4-0.2-0.9-0.4-1.4c-0.7-2.1-1.5-4.7,0.1-6c1-0.8,2.6-1,3.8-1.1c0,0,1.3-0.1,2.6-0.1h0.5c1.5,0,3.1,0.1,4.6,0.3
	c2.8,0.4,5.8,1.1,9.5,2.3c2,0.7,3.9,1.4,5.8,2.1c4.4,1.6,8.9,3.3,13.7,4.2C177.2,266.2,175.9,267.1,174.6,267.8"/>
<path class="st0" d="M223.6,302.9c-1.3-8.4-3.4-16.6-6.2-24.6c-2.7-7.6-6.1-15.1-10.2-22.1c-3.2-5.4-6.8-10.7-10.7-15.5
	c-5.1-6.2-10.9-11.9-17.3-16.9c-6.2-4.8-13-8.8-20.2-11.9c-7.2-3.1-14.8-5.2-22.6-6.2c-7.9-1-15.9-0.9-23.8,0.3
	c-7.7,1.2-15.3,3.5-22.4,6.8c-7.2,3.3-13.9,7.5-20,12.4c-6.2,5.1-11.9,10.9-16.9,17.2c-4.9,6.2-9.1,12.9-12.7,19.9
	c-3.7,7.3-6.8,15-9.1,22.9c-2.4,8.2-4.1,16.7-5,25.2c-0.9,8.9-1,17.8-0.4,26.7c0.6,8.6,2,17.2,4.2,25.5c2.1,8,4.9,15.8,8.4,23.3
	c3.4,7.2,7.4,14.1,12.1,20.5c5.3,7.2,18.7,19.9,18.8,19.9c15.9,13,35.1,20.6,55.8,20.6h0c7.9,0,15.8-1.1,23.4-3.3
	c7.5-2.2,14.7-5.4,21.3-9.5c6.8-4.1,13.1-9.1,18.7-14.8c5.6-5.6,10.6-11.8,15-18.5c4.4-6.7,8.1-13.9,11.1-21.3
	c3.2-7.7,5.6-15.8,7.3-24c1.8-8.6,2.8-17.3,3-26.1C225.6,320.5,225.1,311.6,223.6,302.9 M47,360.7h-2.5l2.3-8.7
	c0.2-0.6,0.3-0.6,0.4-0.3C47.1,354.8,47,357.8,47,360.7 M48.2,337.1l-5.1-2.4c-0.3-0.1-0.3-0.2,0-0.2h11c0.3,0,0.3,0.1,0,0.2
	l-4.9,2.4C49,337.3,48.5,337.3,48.2,337.1 M41.8,332.3l5.7-4c-0.1,1.3-0.1,2.7-0.1,4H41.8z M43.7,318.6h9.8c0.3,0,0.3,0.1,0.1,0.2
	l-4.4,2.1c-0.3,0.1-0.7,0.1-1,0l-4.5-2.1C43.4,318.7,43.5,318.6,43.7,318.6 M42.5,316.6l5.3-3.5c0,1.1,0,2.2-0.1,3.5H42.5z
	 M49.6,313.2l5.2,3.4h-5.2C49.7,315.5,49.6,314.3,49.6,313.2 M49.9,328.3l5.8,4h-5.7C49.9,330.9,49.9,329.6,49.9,328.3 M50.4,360.7
	c0-2.8-0.1-5.9-0.1-9c0-0.2,0.2-0.4,0.4,0.3l2.3,8.7H50.4z M125.6,438.1c-15.2,0-29.6-4.6-42.2-12.8c9.8-0.1,19.5,1.2,29.2,2.7
	c9.7,1.4,19.4,3.1,29.2,4c3.8,0.4,7.5,0.7,11.3,0.8C144.5,436.2,135.2,438.1,125.6,438.1 M170.3,423.7c-9.6,1-19.4,0.6-29-0.5
	c-9.6-1-19.2-2.7-28.7-4.1c-9.9-1.4-19.8-2.7-29.8-2.6c-3.4,0-6.7,0.2-10.1,0.5c-3.2-2.8-6.2-5.9-9-9.1c10-1.5,20.2-1.4,30.2-0.7
	c10.1,0.7,20.2,2.2,30.2,3.7c5,0.7,10.1,1.5,15.1,2.2c2.5,0.3,12.5,1.1,14.9,1.1c10.1,0,20.2-0.8,30.1-2.4
	C179.8,416.3,175.2,420.3,170.3,423.7 M193.2,401.1c-9.6,2.3-19.5,3.6-29.5,4.1c-4.9,0.3-9.9,0.4-14.9,0.2c-5-0.2-10-1-15-1.8
	c-10-1.4-20-3-30-4.2c-10-1.1-20.1-1.7-30.2-1.2c-5.4,0.3-10.9,0.9-16.3,2c-1.8-2.6-3.6-5.2-5.2-8c8.9-1.8,17.9-3,26.9-3.3
	c9.2-0.3,18.3,0.3,27.4,1.5c8.8,1.1,17.5,2.8,26.3,4c8,1.1,16.1,1.8,24.2,1.8h0c8.4,0,16.9-0.8,25.2-2.1c6.1-1,12.1-2.2,18-3.8
	C198.1,394,195.7,397.6,193.2,401.1 M59.2,370.3c-4.2-2.8-4.8-7.3-4.6-8.2l13-30.7c0.3-0.5,0.4-0.4,0.3,0L59.2,370.3z M67.8,341.3
	c-0.2,13.7-0.4,26.5-0.4,32.6c-2.4-0.7-4.7-1.4-6.7-2.9l6.9-30.4C67.7,340.4,67.8,340.9,67.8,341.3 M64.4,314.4h9.8
	c0.3,0,0.3,0.1,0.1,0.2l-4.4,2.1c-0.2,0.1-0.6,0.1-0.9,0l-4.6-2.1C64.1,314.5,64.1,314.4,64.4,314.4 M63.2,312.5l5.2-3.4
	c0,1.1,0,2.2,0,3.4H63.2z M70.4,309.1l5.1,3.3h-5C70.4,311.3,70.4,310.2,70.4,309.1 M80.8,354.1c-0.2,6.6-0.3,13.1-0.4,18.2
	c0,0-0.1,0.1-0.2,0.1l-4.3-19l2.3-5.5L80.8,354.1z M79.1,345.9l1.7-4.1c0.2-0.3,0.3-0.2,0.3,0c-0.1,2.7-0.1,5.5-0.2,8.4L79.1,345.9z
	 M74.8,356.1l4.2,17.2c-1.5,0.6-3.3,1-4.9,1.2c-0.6,0.1-1.1,0.1-1.7,0.2c-0.4,0-0.7,0.1-1,0c0-2.3-0.1-5.8-0.1-10.1L74.8,356.1z
	 M71.1,360.5c-0.1-5.7-0.2-12.4-0.3-19.3c0-0.6,0.2-1,0.5-0.1l2.8,12.3L71.1,360.5z M75.2,350.8l-4.5-19.3c0-0.4,0-0.6,0.3,0
	l6.2,14.4L75.2,350.8z M83.8,356.8V354c-0.1-5-0.3-7.4-0.4-12c0-0.3,0.1-0.6,0.4-0.2l7.8,19.4c-1.3,2.5-1.5,3.4-3.5,5.5L83.8,356.8z
	 M86.8,367.9c-0.8,0.9-1.8,1.7-2.7,2.5c-0.1-2.6-0.2-6.1-0.3-9.2L86.8,367.9z M94.7,360.5l8.9-19.1c-0.2,5.5-0.3,13.3-0.5,19.1h-3.6
	C98.1,360.5,96,360.6,94.7,360.5 M158.3,336.1h12.8c0.3,0,0.4,0.1,0.1,0.2c0,0-5.8,2.8-5.8,2.8c-0.4,0.2-0.9,0.2-1.2,0l-6-2.8
	C157.9,336.2,157.9,336.1,158.3,336.1 M156.8,333.5l6.7-4.8c0,1.4-0.1,4.6-0.1,4.8H156.8z M159.2,314.6c0,0,0.1-0.1,0.2-0.1h10.7
	c0.1,0,0.2,0,0.2,0h0l0,0c0.1,0,0,0.1-0.1,0.2l-4.8,2.3c-0.3,0.1-0.7,0.1-1,0l-5-2.3C159.2,314.7,159.2,314.6,159.2,314.6
	 M158.1,312.3l5.7-4.1c0,1.3,0,2.7-0.1,4.1H158.1z M165.8,308.3l5.8,4h-5.7C165.8,310.9,165.8,309.6,165.8,308.3 M166.1,328.7
	l6.7,4.8h-6.6C166.1,331.9,166.1,330.3,166.1,328.7 M185.5,323.6h11c0.3,0,0.3,0.1,0.1,0.2l-5,2.4c-0.3,0.1-0.7,0.1-1,0l-5.1-2.4
	C185.2,323.7,185.2,323.6,185.5,323.6 M184.1,321.3l5.7-4.1c0,1.4-0.1,2.7-0.1,4.1H184.1z M192.1,317.3l5.9,4.1h-5.8
	C192.2,319.9,192.1,318.6,192.1,317.3 M189.6,340.8c-0.2,13.3-0.4,27.6-0.6,37.6c-3.2,1.1-6,1.4-8.5,1.2l5.5-24.4l3.2-14.3
	C189.4,340.6,189.5,340.4,189.6,340.8 M188.8,335.1l-9.5,42.2l-4.1-11.3l0-0.1l13-31.2C188.6,334.1,189,333.7,188.8,335.1
	 M178.3,379.3c-3-0.7-5.3-2.1-7.2-3.7l3.1-7.4L178.3,379.3z M170,374.4c-1.8-1.9-2.9-3.9-3.3-4.7c-0.1-6.4-0.2-15.9-0.4-26.2
	l7.2,22.3L170,374.4z M154.3,369.3h-15.7l23.4-26.4L154.3,369.3z M163.2,343.5c-0.1,6-0.3,25-0.3,25.7h-7L163.2,343.5z M192.4,340.8
	c0-0.4,0.2-0.3,0.3,0.1l6.6,28.3c-1.4,3.4-4.3,5.8-6.4,7.2C192.9,371.3,192.5,340.9,192.4,340.8 M201,369.1l-8-33.6
	c-0.3-2,0.3-1.3,0.7-0.6l14.7,34.2H201z M214.1,352.7c-1.1,5.4-2.5,10.6-4.2,15.8l-17.6-41.7l7.7-3.4c0.8-0.4,0.8-1.5,0-1.9
	c0,0-7.6-5.4-8-5.7l-0.2-12.8c0.9-0.1,1.8-0.5,2.7-0.7c1-0.1,2,0,3,0.2c0.9,0.2,1.8,0.2,2.7,0c0.9-0.2,1.6-0.7,2.3-1.3
	c-2-0.1-3.6-1.3-5.4-2.1c-0.9-0.4-1.8-0.6-2.8-0.8c-1-0.1-2.1-0.2-3,0.1c-0.1-0.8-0.2-1.5-0.3-2.4h-0.4c-0.6,3.5-0.6,7.3-0.6,10.9
	c0,2.5-0.1,5-0.1,7.5c0,0.5,0,0.9,0,1.3l-7.9,5.7c-0.8,0.4-0.8,1.6,0,2v0l7.5,3.4l-15.1,36.8l-7.8-23.6l8.6-4.1
	c0.9-0.5,0.9-1.8,0-2.3c0,0-8.1-5.7-9.2-6.5c0-3-0.1-6.2-0.1-9l7.9-3.7v0c0.8-0.4,0.8-1.5,0-1.9c0,0-7.1-5-8.1-5.7
	c-0.1-5.8-0.1-11.6-0.2-17.4c0.4,0,0.9-0.1,1.3-0.3c0.5-0.1,1-0.3,1.5-0.4c1-0.2,2,0,3,0.2c1,0.2,1.9,0.3,2.9,0
	c0.9-0.3,1.6-0.7,2.3-1.3c-2,0-3.6-1.3-5.4-2.1c-0.9-0.4-1.9-0.6-2.8-0.8c-1-0.1-2.1-0.2-3,0.1c-0.1-0.8-0.2-1.5-0.3-2.4h-0.4v0
	c-0.6,3.2-0.6,6.4-0.6,9.7c0,3,0,5.9-0.1,8.9c-0.1,1.9-0.1,3.8-0.1,5.7l-8,5.7c-0.8,0.4-0.8,1.6,0,2l7.8,3.7h0c0,2.8-0.1,6.1-0.1,9
	l-9.2,6.4c-0.9,0.5-0.9,1.8,0,2.3l8.5,4l-26.4,29.3c-0.5,0-3.8,0-4.3,0.6c-0.7,0.5-0.7,1.4-0.4,2.1c0.4,1,1.2,1.6,2.1,2.1
	c0.4,0.3,0.9,0.5,1.4,0.7c0.1,0,0.1,0.1,0.1,0.1c0,0,2.4,7.9,12.6,11.6c0,0,0.3,0.1,0.2,0.3c0,0,0,0.1-0.1,0.1c-0.1,0-0.2,0-0.3,0.1
	c-9.7-0.6-19.3-2.2-28.9-3.7c-3.7-0.6-7.3-1.2-11-1.6c-2.5-0.3-5-0.6-7.4-1.1c-0.3-0.1-0.4-0.1-0.4-0.2v0v0v-0.1v0
	c0-0.1,0.1-0.1,0.1-0.2c0,0,0.1,0,0.1,0c13.5-4,16.3-13.9,16.3-13.9c0.2-0.1,0.4-0.2,0.5-0.3c0.4-0.2,0.7-0.4,1.1-0.5
	c0.9-0.5,1.7-1.2,2.1-2.1c0.3-0.7,0.3-1.6-0.4-2.1c-0.5-0.7-4.3-0.6-4.3-0.6l0,0h-0.6c0-2.1-0.1-7.6-0.2-11.1c0.4,0.2,0.9,0,1.3-0.1
	c0.5-0.2,1-0.3,1.5-0.4c1-0.3,2-0.2,3.1,0c1,0.2,2,0.3,3,0.1c0.9-0.2,1.7-0.7,2.4-1.3c-2-0.1-3.7-1.4-5.5-2.2c-1-0.4-2-0.7-3-0.7
	c-1-0.1-2.2-0.2-3,0.2c-0.1-0.8-0.2-1.6-0.2-2.1h-0.4c-0.5,3-0.5,13.5-0.5,17.6l-6.8,0c-0.2-7.4-0.5-17.3-0.7-23.6l5.9-12.6
	c0.8,0.4,1.7,0.4,2.6,0.7c0.9,0.3,1.7,0.9,2.4,1.5c0.7,0.6,1.5,1.2,2.3,1.4c1,0.3,2,0.3,2.9,0.1c-1.7-1-2.5-2.8-3.6-4.4
	c-0.6-0.8-1.3-1.5-2-2.1c-0.8-0.6-1.8-1.2-2.8-1.5c0.2-0.7,0.5-1.6,0.6-2c0-0.1,0-0.2-0.2-0.3c0,0-0.1,0-0.1,0
	c-0.3,0-0.3,0.2-0.5,0.4c-0.5,0.6-1.2,1.9-1.3,2.1l-6.3,13.4c-0.1-2.1-0.1-4.2-0.1-6.4c0-2.7-0.1-5.3-0.6-7.9h-0.4
	c-0.5,3.2-0.6,6.4-0.6,9.7c0,2.9-0.1,5.8-0.2,8.7l-10.8,22.4l-9.7-23.7c-0.1-2.9-0.1-5.9-0.2-8.8c-0.1-3.3-0.1-6.7-0.6-10h-0.4
	c-0.6,3.2-0.6,6.5-0.6,9.8c0,3-0.1,6-0.2,9l-3.1,7.3l-7.6-17.6c0-2.9-0.1-5.8-0.1-8.6l6.9-3.3c0.7-0.3,0.7-1.4,0-1.7
	c0,0-5.8-4.2-7.1-5c-0.1-6.1-0.1-12.1-0.2-18.2c0.4,0,0.9-0.1,1.3-0.3c0.5-0.1,1-0.3,1.5-0.4c1.1-0.2,2,0,3,0.2c1,0.2,1.9,0.3,2.9,0
	c0.9-0.3,1.6-0.7,2.3-1.3c-1.9,0-3.6-1.3-5.3-2.1c-0.9-0.4-1.8-0.7-2.8-0.8c-1-0.1-2.1-0.2-3.1,0.1c-0.1-0.8-0.2-1.6-0.3-2.4h-0.4
	c-0.7,3.9-0.6,7.8-0.7,11.7c0,3.8-0.1,7.5-0.1,11.3c0,0.7,0,1.4,0,2.1l-7,5c-0.7,0.4-0.7,1.4,0,1.7l6.9,3.3c0,3.1-0.1,8.3-0.1,8.6
	l-14,32.9l-2.1-7.6h1.8v0h0.9c0.4,0,0.8-0.1,1.2-0.3c0.3-0.1,0.9-0.3,0.9-0.7c0-0.3-0.6-0.5-0.8-0.6c-0.4-0.2-0.8-0.3-1.3-0.3h-3.2
	l-1.4-5.2c0-2.1-0.1-4.3-0.1-6.4l7.7-3.7c0.8-0.4,0.8-1.5,0-1.9c0,0-7.4-5.3-8-5.6c0-1.5-0.1-3.7-0.1-5.1l7-3.3
	c0.7-0.3,0.7-1.4,0-1.8c0,0-6.2-4.4-7.2-5.1c-0.1-5.1-0.1-8.5-0.1-8.8c0.8,0.1,1.7-0.4,2.4-0.6c0.9-0.1,1.7-0.1,2.6,0.1
	c0.8,0.2,1.7,0.3,2.5,0.1c0.8-0.2,1.5-0.6,2.2-1.2c-1.8,0-3.2-1.1-4.8-1.9c-0.8-0.4-1.7-0.6-2.5-0.7c-0.9-0.1-1.9-0.2-2.7,0.2
	c-0.1-0.7-0.2-1.4-0.3-2.1h-0.4c-0.6,2.8-0.6,5.6-0.6,8.4c0,2.4,0,4.1-0.1,6.5l-7.1,5.1c-0.7,0.4-0.7,1.4,0,1.8l7,3.3
	c0,1.4,0,3.6-0.1,5.1l-7.8,5.6c-0.8,0.4-0.8,1.5,0,1.9l7.7,3.7c0,2.1-0.1,4.2-0.1,6.3l-1.4,5.3h-3.2c-0.4,0-0.8,0.1-1.2,0.2
	c-0.3,0.1-0.9,0.3-0.9,0.7c0,0.3,0.5,0.6,0.8,0.6c0.4,0.1,0.8,0.3,1.3,0.3h0.9c0,0,0,0,0,0h1.8l-2.4,9.2h-3.9
	c-2.4-8.8-3.8-17.9-4.3-27c-0.5-9.1-0.2-18.3,1.1-27.3c1.2-8.4,3.2-16.7,6-24.7c2.7-7.6,6-15,10.2-21.9c2.2-3.7,4.5-7.2,7.1-10.6
	c10.5,3.5,24.1,0.3,24.1,0.3c12.2-2.2,19.8-1.9,24.3-1.2l2.4,0.4c0.3-1.5,0.4-2.6,0.9-4c-12.8-4-27.2-2.1-27.2-2.1
	c-8.7,0.8-14.1-1-16.8-2.5c0,0,5.5-5.8,10-9.1c3.9,2.8,8.9,4.3,13.6,5.1c3.1,0.6,6.2,0.8,9.3,1.5c3.1,0.7,6.2,1.6,9.2,2.7
	c1.1,0.4,2.5,1.1,3.1,1.4c0.6-1.2,1.4-2.4,2.1-3.5l-2-1.3c-3.9-2.2-7.7-3.4-11.8-4.7c-2.8-0.9-5.5-1.8-8.1-3.1
	c-3.6-1.8-5.7-4.2-5.9-4.4c0,0,6.1-3.7,11.8-5.8c2.6,3.8,7.6,5.9,10.9,8.7c4.7,4,7.3,7.8,7.5,8.2c1.1-0.8,2.2-1.4,3.6-2
	c-1.9-4.2-4.6-8.9-7.8-12c-1.5-1.4-3.7-3.7-4.3-6.1c0,0,7.6-1.9,13.5-2l2.2,19.3c0.8-0.2,2.1-0.1,2.1-0.1s0.8,0,2.1,0.1l2.2-19.3
	c0,0,5.2,0.2,9.4,1.1c2.3,0.5,4.1,0.9,4.1,0.9c-0.7,2.4-2.8,4.8-4.3,6.1c-3.3,3.1-5.8,7.8-7.8,12c1.1,0.5,2.4,1,3.6,2
	c2.2-3.3,5-6.1,7.5-8.2c3.3-2.9,8.2-5.1,10.9-8.7c0.7,0.3,3.6,1.4,8.4,3.8l3.5,2c-0.1,0.1-4,3.3-6,4.4c-2.5,1.5-5.3,2.3-8.1,3.1
	c-4.2,1.3-7.9,2.4-11.9,4.7l-2,1.2c0.8,1,1.5,2.2,2.2,3.5c0.7-0.3,2.1-1,3.1-1.3c3-1.1,6.1-2,9.2-2.7c3-0.7,6.2-0.9,9.3-1.5
	c4.6-0.8,9.6-2.3,13.5-5.1c5,3.9,10,9.1,10,9.1c-2.8,1.5-8.1,3.3-16.8,2.5c0,0-14.4-2-27.2,2c0.4,1.2,0.5,2.1,0.8,3.9l2.5-0.4
	c4.5-0.6,12-0.9,24.2,1.3c0,0,13.5,3.2,24-0.3c1,1.3,2.1,2.7,3,4.1c4.5,6.5,8.3,13.5,11.4,20.9c3.2,7.7,5.7,15.7,7.4,23.9
	c1.8,8.6,2.7,17.4,2.8,26.2C216.8,333.8,215.9,343.3,214.1,352.7"/>
</svg>
